<svg width="46" height="41" viewBox="0 0 46 41" fill="none" xmlns="http://www.w3.org/2000/svg">
<path d="M36.473 20.3475C36.3704 20.3154 36.2715 20.3072 36.1758 20.3231C35.9699 20.3571 35.8015 20.4662 35.6696 20.6508L34.4019 22.4206C34.2835 22.5867 34.2409 22.7723 34.2749 22.9781L35.2718 29.0054C35.4445 30.0498 35.2213 31.0046 34.6003 31.8715C33.9797 32.738 33.1472 33.2577 32.1029 33.4304L12.3586 36.6958C11.3143 36.8686 10.3589 36.6446 9.49238 36.0241C8.62569 35.4032 8.1063 34.5712 7.93356 33.5268L4.66816 13.7829C4.49548 12.7387 4.71927 11.7834 5.33993 10.9167C5.96045 10.0501 6.79293 9.53057 7.83724 9.35785L27.5817 6.09235C27.9299 6.03478 28.2936 6.02338 28.6731 6.05821C28.7733 6.07392 28.8471 6.07819 28.894 6.07044C29.1 6.03637 29.269 5.92739 29.4009 5.74307L30.3714 4.38791C30.5298 4.16694 30.5633 3.92555 30.471 3.66474C30.3816 3.41941 30.209 3.26095 29.9534 3.18957C29.0342 2.93579 28.0755 2.89053 27.0788 3.05537L7.33494 6.32076C5.45229 6.63212 3.95298 7.56682 2.8372 9.12481C1.7216 10.6829 1.31936 12.4031 1.63075 14.2858L4.89622 34.0302C5.20755 35.9126 6.14223 37.4118 7.70014 38.5276C9.2582 39.6438 10.9786 40.0459 12.8613 39.7346L32.6055 36.4691C34.4879 36.1578 35.9874 35.2231 37.1031 33.6647C38.219 32.1067 38.6218 30.3864 38.3105 28.5039L37.0623 20.9569C37.0072 20.625 36.8103 20.422 36.473 20.3475Z" fill="#333333"/>
<path d="M40.1771 5.74065L37.1347 3.56173C36.6922 3.24492 36.2096 3.1297 35.6874 3.21607C35.1658 3.30233 34.7457 3.56685 34.4291 4.00919L21.6142 21.9028L14.341 16.6936C13.8984 16.3766 13.4161 16.2616 12.8942 16.3479C12.3722 16.4342 11.9527 16.6984 11.6356 17.1411L9.457 20.1832C9.14011 20.6256 9.02469 21.1081 9.11106 21.6303C9.19739 22.1523 9.46197 22.5717 9.90448 22.8888L21.7965 31.4054C22.2391 31.7225 22.7214 31.8374 23.2433 31.7511C23.7652 31.6648 24.1848 31.4008 24.5018 30.958L40.6243 8.44597C40.941 8.00361 41.0566 7.52105 40.9703 6.99907C40.8839 6.47708 40.6196 6.05746 40.1771 5.74065Z" fill="#333333"/>
</svg>
